<?xml version="1.0" encoding="utf-8"?>
<!-- Generator: Adobe Illustrator 25.0.1, SVG Export Plug-In . SVG Version: 6.00 Build 0)  -->
<svg version="1.2" baseProfile="tiny" id="Calque_1"
xmlns="http://www.w3.org/2000/svg" xmlns:xlink="http://www.w3.org/1999/xlink" x="0px" y="0px" viewBox="0 0 1430.7 1440"
overflow="visible" xml:space="preserve">
	<g>
		<path fill="#FEFEFE" d="M1171.3,1439.9c-390.4,0-780.8,0-1171.1,0.1c-4.2,0-4.8-1-4.8-4.9c0.1-476.7,0.1-953.4,0-1430
		c0-4.4,1.1-5,5.2-5c115,0.1,229.9,0.1,344.9,0.1c2.1,1.1,3.8,2.6,5.5,4.3c110.4,110.4,220.8,220.8,331.2,331.2
		c1.4,1.4,3,2.7,3.8,4.5c0.9-2,2.6-3.4,4.2-4.9C800.2,225,910.4,114.9,1020.5,4.7c1.8-1.8,3.6-3.5,5.8-4.6c78,0,156,0,234,0
		c0.6,1.6-0.5,2.5-1.4,3.5c-1.3,1.5-2.8,2.9-4.2,4.3c-147.6,147.6-295.6,294.8-442.6,442.9c-79.6,80.1-159.7,159.7-239.2,239.9
		c-7,7-7,7-13.9,0.1c-4.4-4.4-8.7-8.7-13.1-13.1c-1.4-1.4-3.1-2.7-3.1-4.9c2-4.6,5.8-7.9,8.6-11.9c4.1-5.9,5.9-12.8,9.2-19
		c1.5-1.3,1-2.9,0.7-4.4c1.4-8.6,1.7-17.3,1.9-26c0.4-1.6,0.8-3.1-0.4-4.6c-0.5-1.1-0.5-2.2-0.3-3.4c0.7-1.7-0.4-3-1.2-4.4
		c-3.5-13.6-7.2-27-13.1-39.8c-13.2-29.2-33.6-51.7-61.8-67.2c-14-7.7-28.7-13.1-44.6-15.7c-20.6-3.4-40.8-1.7-61,2.9
		c-34.3,7.7-65.9,22.2-96.7,38.6c-30.5,16.2-57.1,37.3-80.7,62.4c-3.9,4.1-7.5,8.5-11.2,12.7c-1.4,1.6-2.8,4-5.2,3.1
		c-2.2-0.9-1.3-3.6-1-5.4c2.1-13.8,3.2-27.8,4.3-41.7c1.3-15.8,1.2-31.6-2.6-47.2c-3.4-14.2-11.9-25.2-23-34.3
		c-7-5.7-15.4-7.4-24.4-7.2c-12,0.2-23.5,2.5-34.3,7.8c-7,3.5-11.8,8.6-12.5,16.8c-0.3,3.1-2.1,5.6-3.7,8.1
		c-6.4,9.8-12.7,19.6-16.9,30.6c-7.5,19.7-6.4,39.9-2.8,60.1c3.6,20.4,9.8,40.1,18.1,59.1c7.8,17.7,19.4,31.6,36.8,40.6
		c11.5,6,10.6,5.3,6.4,16.8c-9.4,25.7-13.1,52.3-11.7,79.6c1.1,21,4.8,41.7,10.4,62c7.7,27.8,17.9,54.6,32.7,79.3
		c29,48.2,72.1,76.4,127.3,86.4c17.5,3.2,35,4.3,52.7,2c22.8-2.9,42.7-12.2,59.9-27.5c17.2-15.2,28.9-34.3,39.4-54.2
		c12.8-24.1,23.6-49.3,35.9-73.7c6.1-12.1,12.7-23.8,19.9-35.2c7.1-11.2,15.6-21.2,26.2-29.2c4-3,8-4.1,13-3.2
		c12.6,2.3,24.5,5.4,35,13.4c14.5,11.1,20.7,26,22.2,43.5c1.9,21,2.3,42.2,3.8,63.3c1,13.8,0.9,27.6,2.2,41.4
		c1.2,13.1,2.4,26.2,7.3,38.6c2.8,7,7,12.8,12.4,17.9c17.1,16,37.5,22.2,60.5,20.9c9.4-0.5,13.8-4.5,15.8-13.8c2-9,2.7-18.2,3-27.3
		c0.5-18.7,0.4-37.3,0.1-56c-0.5-23.3,2-46.3,8-68.7c7.8-29.1,25.1-51.5,51.4-66.7c3.4-1.9,6.4-2.1,9.9-0.3
		c6.6,3.5,13.1,7.4,19,11.9c7.5,5.6,11.6,13.7,14.7,22.2c7.1,19.2,10.4,39.2,12,59.6c1.3,16.8,1.6,33.6,2.1,50.4
		c0.2,8.1,0.5,16.3,2,24.4c3.9,20.7,16.2,33.1,36.9,36.9c10.7,2,21.5,2.8,32.3,2.5c2.7-0.1,5.3-0.5,7.9-1.3c7.5-2.5,10.9-9.3,8-16.7
		c-1.5-3.8-1.9-7.7-2-11.7c-0.9-29.9-1.7-59.9-6.9-89.5c-1.2-7.1-3-14-4.5-21c-6-27.2-3.1-52.7,14.8-75.1
		c6.9-8.7,16.5-12.7,27.2-14.2c4.7-0.7,6.5,2.7,7.7,6.3c2.4,7.3,4,14.9,4.3,22.5c1,25.8,3.7,51.5,8.2,76.9
		c5.8,32.5,16.4,63.6,33,92.3c9.8,16.9,23.3,30.8,41.7,39c13.4,6,27.7,8.5,42,6c37.6-6.7,73.1-19.3,102.9-44.3
		c26.4-22.1,45.8-49.1,54.6-83c0.3-1.1,0.6-2.3,0.9-3.4c0.9-3.3,3-4.6,6.4-3.6c13.3,3.7,25.6,9.4,36.4,18.2
		c9.1,7.4,17.3,15.5,22.4,26.4c4.5,9.6,4.4,18.7,0,28.3c-8.1,17.9-22,29.4-38.9,38.6c-13.2,7.2-27,12-41.4,15.8
		c-18.5,4.8-36.5,11.9-55.3,15.7c-25.5,5.1-50.8,10.9-76.5,15c-6.2,1-12.5,1.5-19,2.5c12.4,5.5,25.1,7.4,38.1,8.4
		c10.1,0.7,20.3,1.1,30.3,3.2c4.2,0.9,8.2,0.7,12.4,0c23.1-3.8,45.4-10.6,67.7-17.5c8.8-2.7,17.7-4.7,26.5-7.4
		c20.4-6.5,38.6-17.4,55.5-30.2c9.3-7,15.1-17.2,20.7-27.3c2-3.6,3.9-7.4,5.3-11.3c3.4-9.2,5.8-18.4,3.4-28.3
		c-0.4-1.9-1.4-4.5,0.7-5.5c2.4-1.1,3.7,1.6,4.9,3.2c4.2,5.4,8.1,11,12,16.6c8.5,12.2,9.4,24.8,3.2,38.3
		c-8.4,18.1-19.7,34.3-32.2,49.8c-2.5,3.1-5.6,5.8-9.1,7.7c-10.9,5.8-21.6,11.8-32.6,17.4c-17.4,8.8-35.9,13-54.5,17.5
		c-5.7,1.4-11.5,2.1-17.4,1.5c-11.2-1.1-22.2,1.1-33.3,2.3c-8.4,0.9-16.9,1.4-25.4,1.9c-27.6,1.5-54.8-2.7-82-6.3
		c-5.1-0.7-9.9-3-14.9-4.3c-17-4.6-33.6-10.8-51-13.8c-10.3-1.8-20.9-1.9-31.3-2.7c-15.9-1.3-31.8-2.5-47.8-3.6
		c-11.1-0.8-22.2-1.6-33.3-2.4c-14.8-1-29.6-1.5-44.3-2.7c-7-0.6-14-0.8-20.9-1c-15.5-0.5-30.9-1.6-46.4-2.4
		c-24.8-1.2-49.5-1.9-74.3-3c-20-0.9-39.9-1.4-59.9-2c-28.1-0.8-56.2-1.3-84.4-2.1c-17.5-0.5-35-0.9-52.4-0.6
		c-23,0.5-45.9,1.3-68.9,2.1c-17.1,0.6-34.3,0.9-51.4,1.9c-19.9,1.2-39.9,2-59.8,3.7c-59.1,5.1-117.7,14.1-176.3,23.4
		c-18.8,3-37.4,6.9-54.5,15.9c-5.5,2.9-10.6,6.4-14.9,10.9c-8.1,8.4-10.4,20.5-5.3,31c7.1,14.6,17.7,26.1,31.8,34.3
		c3.6,2.1,6.6,4.3,8.2,8.3c1.5,3.8,4.6,6.1,8.4,7.3c23.5,7.4,46.4,16.8,70.6,21.8c26.5,5.4,52.4,2.9,76.9-9.2
		c7.7-3.8,14.3-9.1,18.3-17.1c3.2-6.4,3.3-12.5-0.8-18.4c-4.2-6-10.5-7.3-17.3-6.7c-3.7,0.3-7.1,1.6-10.5,3.1c-9.4,4-19,7.3-29,9.1
		c-6.7,1.2-13.3,0.7-19.6-2.1c-4.8-2.1-5.7-4.9-3.4-9.6c2.2-4.5,5.7-7.7,10.1-10c8.7-4.6,18-7.9,27.2-11.4
		c8.9-3.4,18.1-5.8,26.8-9.7c22.6-10.1,46.5-15.2,71-17.4c6.8-0.6,13.5-2.3,20.4-1.7c1.7,0.7,3.2,0.1,4.7-0.8
		c3.4-0.9,6.8-1.8,10.3-1.2c1.6,0.6,3,0.3,4.4-0.7c1.4-0.5,2.8-0.5,4.2-0.2c1.9,0.7,3.2-0.8,4.8-1.2c17.4-2.3,34.8-4.5,52.3-4.1
		c1.9,0.7,3.7,0,5.4-0.8c13.6-0.2,27-2.4,40.6-2.2c2,0.8,3.8-0.1,5.5-0.9c7.9-1,16-1.1,23.9-1.2c18.5-0.1,36.8-2.5,55.2-4.4
		c16.8-1.8,33.6-1.1,50.3,0.6c5.7,0.6,11.3,0.1,16.9,0.8c2,0.7,3.8,0.1,5.6-0.8c7-0.9,14-0.3,21-0.4c5.4,0.1,10.7,0.2,16.1,0
		c10.9-0.5,21.6,1.6,32.3,2.4c3.3,0.2,6.6,0.6,10,0.6c33.3,0,66.6,0,99.9,0c2.7,0,5.3-0.2,8,0.4c3,1.3,5.8,4.1,9.4,1.2
		c3.1-0.7,6.3-0.2,9.5-0.5c6.2,0.2,12.3-0.5,18.5,0.4c1.6,0.5,3.2,1.8,5.1,1c2.8-0.4,5.7-0.6,8.5,0.2c1.5,0.8,3,1.5,4.7,0.8
		c3.1-0.4,6.2-0.6,9.3,0.2c1.5,0.9,3.1,1.5,4.9,0.8c4.1-0.4,8.1-0.7,12.1,0.2c1.7,1,3.4,1.3,5.3,0.7c8-1.2,15.9,0.8,23.9,0.8
		c16.4,0.1,32.8-0.5,49.2-1c2.4-0.2,5.6,2,6.3-2.9c0.3-2.1,2.7-1,4.3-0.7c8.6,1.6,17.3,2.9,25.7,5.7c1.5,0.5,3.2,1.1,4.7-0.1
		c1.4-0.6,2.8-0.7,4.2-0.4c0.5,0.1,0.9,0.3,1.3,0.5c1.4,1.3,3,0.6,4.5,0.3c7.9,0.1,15.7,1.3,23.5,2.2c1.6,0.9,3.3,1.5,5.1,0.8
		c9.3-0.5,18.4,1.4,27.6,2.1c5.3,0.4,10.6,0,15.8,1c1.7,0.5,3.2,1.8,5.1,1c1.4-0.2,2.7-0.3,4.1-0.4c9.1-0.1,18.1-0.1,27.2,0
		c1.7,0.2,3.4,0.1,5,0.5c2.6,2.1,4.3-0.7,6.4-1.2c5.7-0.3,11.5-1.2,17.1,0.7c2.4,1.6,3.5,3.8,3.4,6.8c-0.9,29.8-0.2,59.6-0.4,89.3
		c0,4.7,0,9.3-2.2,13.6c-1.2,2.4-0.8,5.2-0.8,7.9c0,73.6,0,147.1,0,220.7C1172.9,1433.9,1173.6,1437.1,1171.3,1439.9z"/>
		<path fill="#FEFEFE" d="M1171.3,1439.9c0-77.3,0-154.6,0-231.8c0-3.3-0.5-6.6,2.3-9.3c1.4-1.3,0.6-3.5,0.7-5.3
		c0-29.8,0-59.6,0-89.4c0-3.7,2.4-7.9-2-10.9c2.2-2.3,5.1-2.4,7.8-2.4c20-0.4,39.8-2.5,59.4-6.2c28-5.3,54.6-14.5,78.6-30.4
		c11.8-7.8,21.5-17.9,29.5-29.4c10-14.4,19.1-29.2,23.2-46.6c0.7-2.9,1-5.9,1.4-8.9c0.8-2.5,0.8-4.9,0-7.4
		c-0.8-12.2-5.5-22.9-12.4-32.8c-7.9-11.4-15.8-22.7-24.7-33.3c-10.2-12.2-23.6-19.8-38.2-25.6c-19-7.6-38.1-15.2-57.1-22.9
		c-5.6-2.3-8-5.3-8.3-11.7c-0.8-14.7-4.3-28.9-9.7-42.7c-7.1-18.1-15.9-35.2-28.9-49.9c-7-7.9-15.2-13.1-26.2-13.8
		c-7.6-0.5-15.2-1.8-22.6-3.8c-16.8-4.4-34.1-5.9-51.1-9.1c-5.7-1.1-10.5,0.3-14.4,4.7c-1.3,1.5-3,2.6-4.6,3.8
		c-14.9,10.6-18.2,26.1-9.2,42.1c9.9,17.6,24.6,30.5,40.9,41.7c8.1,5.6,16.9,10,26,13.9c9,3.8,10.3,6.9,9.3,16.7
		c-0.8,8.4-1,16.9-2.2,25.3c-0.7,4.6-1.7,9.2-3,13.7c-7,24-14.2,47.9-30.7,67.7c-7.4,8.9-15.2,17.2-24.6,23.9
		c-1.8,1.3-3.5,2.6-4.9,4.3c-2.6,3.1-4.9,2.1-6.8-0.7c-2.8-4-4.5-8.6-6-13.2c-4.1-13.4-6.3-27.2-7-41.2c-1.5-32.5-4.1-64.8-14-96.1
		c-6-19.1-14.6-37-27.7-52.2c-12.8-14.9-28.9-24.5-48.9-26.3c-5-0.5-9.9-1.4-14.9-1.1c-2.2,0.1-4.4-0.3-6.3-1.5
		c-10.8-6.5-22.9-6.4-34.8-7.5c-14.1-1.3-26.2,2.8-38.1,10.6c-11.7,7.7-22.8,15.5-30.2,27.7c-2,3.3-4.4,3.6-7.5,1.2
		c-12.9-9.8-27.6-14.6-43.6-15.3c-6.1-0.3-12.3,0.5-18.3,2.1c-10.2,2.8-20.6,2.1-30.8,1.2c-21.7-2-42.2,0.5-60.2,14.1
		c-5.2,3.9-10.6,7.5-15.9,11.3c-4.4,3.3-5.8,3.2-9.2-0.9c-12.6-15-28.6-24.9-46.8-31.2c-24.2-8.3-48.7-8.5-73,0
		c-6.8,2.4-13.5,4.5-20.5,6.1c-19.1,4.1-36.4,12.8-53.1,22.6c-13.3,7.7-25.6,16.9-36.3,28c-2.3,2.4-4.3,5.2-7.5,6.4
		c-2.3,0.1-3.5-1.8-4.8-3.1c-24.7-24.7-49.4-49.3-74-74.1c-1.4-1.4-4.7-2.7-2.3-5.9c3.4-1.1,6.9-0.6,10.4-0.6
		c23.5,0.1,46.8-2.2,69.8-7c29.1-6,57.4-14.5,84.2-27.4c13.1-6.3,25.5-13.7,36.1-23.8c1.6-1.5,3-3.7,5.7-3.6
		c6.4,7.7,14,14.2,20.9,21.5c1.2,1.2,2.1,1.4,3.3,0.1c0.8-0.9,1.6-1.7,2.5-2.5c76.4-76.4,153.3-152.5,229.2-229.4
		C951.1,308.9,1104.6,156.9,1257,3.8c1.2-1.2,2.2-2.5,3.3-3.8c57,0,114,0,171-0.1c3.4,0,4.1,0.7,4.1,4.1
		c-0.1,477.3-0.1,954.5,0,1431.8c0,3.4-0.7,4.1-4.1,4.1C1344.6,1439.8,1258,1439.9,1171.3,1439.9z"/>
		<path fill="#FCFCFC" d="M1026.3,0.1c-0.8,1-1.6,2.1-2.5,3C911.9,115,800,226.9,688.1,338.8c-0.7,0.7-1.2,1.6-2.2,3.2
		c-1.6-2-2.6-3.4-3.7-4.6C571,226.2,459.9,115,348.7,3.8c-1.2-1.2-2.2-2.5-3.3-3.7C572.4,0.1,799.4,0.1,1026.3,0.1z"/>
		<path fill="#F350A0" d="M1373.4,968.9c-0.8,15.6-7.6,29.1-15.3,42.2c-6.9,11.8-15,22.8-24.9,32.5c-11.9,11.6-26,19.6-40.9,26.2
		c-16,7.1-32.8,12.4-50,15.6c-10.8,2-21.7,3.3-32.6,4.7c-12.4,1.6-25,1-37.4,3c-6,0-12,0-18,0c-1,0.4-1.9,0.9-3,0.7
		c-2-0.5-4-0.7-6,0.1c-9.6,0-19.2,0-28.8,0c-1.6-0.9-3.3-0.5-5-0.2c-0.8,0.1-1.5-0.2-2.1-0.6c-15.4,0.4-30.6-3-46-3
		c-1.2,0.3-2.1-0.4-3-1c-8.7-0.7-17.4-1.3-26-2c-1.2,0.2-2.1-0.4-2.9-1.2l0,0c-5.4-0.8-10.6-2.9-16-3.6c-1.8-0.2-3.5-0.7-5.1-1.3
		c-1.6-0.8-3.4-0.7-5.1-0.7c-1.9,0-3.7-0.4-5.3-1.3c-8.5-3.5-17.8-4.1-26.4-7.3c-2.5-1-5-1.8-7.7-2c-35.3-3-70.6-6.5-105.7-11.3
		c-8.2-1.1-16.4-2.6-24.7-3.4c-9.5-0.9-18.8-2.1-28.4-0.7c-7.5,1.2-15-0.4-22.4-1c-7.7-0.6-15.3-0.9-22.9,0.2
		c-8.5,1.2-16.9-0.2-25.3-1.4c-14.3-2.1-28.8-3-43.3-3.5c-2.7-0.1-5.4-0.2-7.9,0.7c-9,3-18.1,1.3-27.2,0.7
		c-9.3-0.6-18.6-0.5-27.9-1.2c-21.6-1.7-43.2,0.2-64.9,0.1c-10.6,0-21.1,2.8-31.7,3.2c-12.9,0.5-25.8,1.8-38.8,0
		c-11.3-1.6-22.6,0.6-33.9,0.9c-14.8,0.4-29,6.2-44.1,4.5c-11.4-1.3-22.9-2.3-34.4-1.8c-8.6,0.4-17.3,0.6-25.9,1.7
		c-10.3,2.4-21,2.1-31,5.7c-16.4,3.8-33.1,5.9-49.7,8.1c-2.2,0.3-4.3,0-6.5-0.2c-15.6-0.9-31.3-0.7-46.9-0.1
		c-28.5,1-56.4,6.8-84.8,8.8c-10.9,0.8-21.6,3.9-32.4,5.9c-7.9,1.5-13.6,6-16.1,14c-0.5,1.6-1.4,3-2.1,4.5
		c-2.4,3.9-2.9,7.5,1.2,10.7c3.8,6.8,10,11,16,15.5c10.5,7.9,22.4,13.9,31.9,23.1c1.6,1.5,3.5,2.6,5.5,3.4c14.8,6,29.2,13,44.1,18.9
		c16.9,6.6,33.9,6.1,51,1.5c8.2-2.2,16.1-5.4,23.8-9c0.5-0.2,0.9-0.4,1.3-0.7c1.2-0.8,3-1.5,2.1-3.4c-0.7-1.5-2.4-0.8-3.6-0.4
		c-4.3,1.4-8.4,3.1-12.6,4.7c-20.8,8-41.7,8.7-63,1.7c-14.3-4.7-18.2-12.5-15.9-27.8c1.7-11.7,8.1-21.4,17.6-28.7
		c7.5-5.8,16-9.6,24.7-13c14-5.4,28.1-10.5,42.3-15.3c8.9-3,18.2-2.7,27.2-2.6c23,0.3,45.4-3.7,68-6.6c18.5-2.4,36.9-5.6,55.5-6.6
		c18.6-1,37.1-3.8,55.6-5.4c14.3-1.2,28.6-0.8,42.9-0.2c3.7,0.2,7.3-0.2,10.9-0.3c6.7-0.2,13.3-0.2,20-0.1c29,0.5,57.9-1.9,86.9-2.1
		c9.9,0,19.6,0.8,29.3,2.5c9.7,1.7,19.4,2.9,29.3,2.5c7.7-0.3,15.4,0.2,22.9,1.8c8.8,1.8,17.6,0.4,26.4-0.1
		c11.3-0.7,22.6-1.1,33.9-1.4c15.2-0.4,30.3,1.6,45.4,0.8c3-0.2,6-0.7,8.9-1.3c2.6-0.5,5.3-0.9,7.9-0.2c10,2.4,20.2,1.1,30.3,1.4
		c12.6,0.3,25.3,0,37.9,0.8c13.1,0.8,26.2,1.7,39.3,2.6c16.6,1.2,32.9,4.7,48.9,9.6c2.1,0.7,4.7,1,5.7,3.6c-0.2,0.7-0.8,0.9-1.5,1
		c-19.2,1.3-38.4,1.3-57.6,0.8c-5.6-0.1-11.1-0.9-16.8-0.6c-1.2,0.3-2.1-0.4-3-1c-4.7,0-9.4,0-14,0c-1.2,0.3-2.1-0.4-3-1
		c-3.7,0-7.4,0-11,0c-1.2,0.3-2.1-0.4-3-1c-3.3,0-6.7,0-10,0c-1.2,0.3-2.1-0.4-3-1c-6.6-0.1-13.3-0.1-19.9-0.2
		c-4.9-1.4-9.7,0.1-14.6,0.2c-0.8-0.2-1.6-0.7-2.4-1c-32.4-0.1-64.8-0.5-97.2,0c-18.4,0.3-36.5-3.3-54.8-3.2
		c-5.4-0.8-10.7-0.8-16.1,0c-7.3,0.1-14.6,0.1-21.9,0.2c-0.9,0.8-1.9,0.9-3,0.7c-19.9,0.6-39.7-3.2-59.6-1.9
		c-10.7,0.7-21.2,2.2-31.8,3.7c-5.2,0.7-10.5,1.4-15.8,1.3c-14-0.3-27.8,1.5-41.8,1.3c-0.9,0.8-1.9,0.9-3,0.7
		c-14.3,0.4-28.6,2.6-42.9,2.3c-0.9,0.8-1.9,0.9-3,0.7c-18.4,0-36.6,2.6-54.9,4.3c-0.9,0.8-1.9,0.9-3,0.7c-1.7,0.1-3.3,0.2-5,0.3
		c-0.9,0.8-1.9,0.9-3,0.7c-4,0.4-8,0.8-12,1.3c-0.9,0.8-1.9,0.9-3,0.7c-13.8,0.8-27.4,3.1-41.2,4.7c-20.8,2.4-39.7,10.7-59.1,17.9
		c-15,5.6-30.4,10.5-44.9,17.5c-4.6,2.2-8,5.5-10.5,10c-2.3,4.1-0.8,6.2,2.8,7.6c7.8,3.1,15.7,2.8,23.8,1
		c10.8-2.4,20.6-7.5,31.1-10.6c8.6-2.5,16.6-1.1,22.4,6.1c5.5,6.8,4.6,15.2-1.4,24.3c-5.4,8.2-13.6,12.8-22.3,16.5
		c-18.9,8.2-38.9,10.2-59.1,8.7c-14.7-1.1-28.8-5.6-42.8-10.6c-13.3-4.7-26.8-8.8-40.2-13.1c-5.3-1.7-9.5-4.5-10.9-10.3
		c-0.5-2.1-2.2-3.5-4.2-4.5c-15.5-7.7-26.5-19.9-34.5-35c-7-13.2-2.4-29.2,9.7-38.2c15.1-11.2,32.5-16,50.3-19.9
		c19.5-4.4,39.4-6.6,59.1-9.9c15.2-2.5,30.6-4.1,45.9-6.2c16.8-2.3,33.5-5,50.3-6.8c11.6-1.2,23.2-2.6,34.9-3.3
		c17.7-1.1,35.3-2.3,53-3c15.1-0.6,30.1-1.3,45.2-2c13-0.6,25.9-0.1,38.8-1.1c10.6-0.8,21.3,0.1,31.8-0.9
		c18.3-1.7,36.6-1.2,54.8-0.6c16.3,0.5,32.6-0.2,48.8,1c11.6,0.9,23.3-0.2,34.8,0.9c12.8,1.2,25.6,0.2,38.4,0.9
		c16.2,1,32.4,1.4,48.7,2.1c16.7,0.6,33.5,1.3,50.2,2c18.5,0.8,37,2.2,55.5,3c12.1,0.5,24.1,1.4,36.2,1.9c15.7,0.6,31.4,1.6,47,3
		c13.2,1.2,26.3,1.9,39.5,3c17.3,1.4,34.5,2.8,51.8,4.1c8.5,0.6,16.7,3.4,24.8,6.3c7.2,2.5,14.6,3.9,21.9,5.7
		c6.3,1.5,12.2,4.8,18.7,6.1c9,1.8,18.2,2.6,27.3,3.9c14.1,2,28.2,3.5,42.4,3.5c9.1,0,18.2,0,27.3-0.9c7.7-0.8,15.4-1.8,23-2.7
		c2.8-0.3,5.6-1.1,8.3-0.9c24.4,1.5,47.7-4,70.4-12.2c14.8-5.3,28.4-13.6,42.5-20.7c13.6-6.9,20.9-19.2,29.3-30.8
		c7.8-10.8,14.4-22.3,19.1-34.9c3.5-9.3,2.6-18.2-2.1-26.6c-5.1-9.1-11.7-17.3-18.3-25.8c-1.5,2.9,0.1,5.1,0.5,7.2
		c2.4,10.8-1,20.5-5,30.1c-5.1,12.4-12.5,23.6-21.6,33.4c-6.2,6.7-14.7,10.5-22.1,15.6c-20.7,14-44.4,20.1-68,26.6
		c-13.4,3.7-26.5,8.7-40.2,11.5c-9,1.8-17.9,3.9-27,5.5c-7,1.2-13.6-2-20.6-2.2c-5.6-0.1-11.1-1.4-16.7-1.6c-7.8-0.3-15.5-1-23-2.7
		c-7.3-1.7-14.4-4.4-22.2-6.8c3.3-2.3,6.6-2.1,9.5-2.4c23.5-2.6,46.5-8.4,69.7-12.4c32.1-5.6,62.6-16.9,94-25
		c12-3.1,22.1-10.7,33-16.6c15.2-8.3,24-21.4,30.4-36.8c4.5-10.8,0.4-20.2-5.4-28.8c-12.3-18.3-29.8-29.8-50.7-36.5
		c-7.4-2.4-7.2-2.4-9.3,5.2c-5.5,20.2-14.7,38.6-27.7,55.1c-17.5,22.2-38.4,39.9-64,52c-6.2,3-12.7,5.3-19.2,7.6
		c-7.1,2.5-14,5.3-21,8.1c-6.9,2.7-14.4,3.6-21.6,4.8c-19.1,3.2-37.5,0.8-54.5-8.9c-12.6-7.1-22.4-17.2-30.8-28.8
		c-13.5-18.5-20.4-40-27.9-61.2c-6.9-19.4-10.8-39.5-13.1-59.9c-2.1-18.7-4.7-37.3-5.1-56.1c-0.1-7.5-1.9-15-4.2-22.2
		c-1.1-3.7-2.5-6.2-8.1-5.2c-20,3.6-30.1,17.2-36.5,34.4c-6.9,18.6-7,37.6-1.8,56.8c3.5,13,5.6,26.3,6.8,39.7
		c1.5,16,2.5,31.9,3.2,48c0.3,8.1,0.5,16.2,0.7,24.3c0,1.3,0.1,2.5,0.8,3.8c5.5,9.8,1.4,21.1-12.5,22.2c-15.1,1.1-30.4,0.2-45-4.6
		c-17.9-5.9-26.4-19.4-29.2-36.9c-2.4-14.6-1.7-29.4-2.2-44.1c-1.1-29.3-2.9-58.5-12.7-86.6c-4.8-13.6-12.8-23.8-25.5-30.7
		c-13.5-7.3-13.6-7.7-26.2,1.3c-23.1,16.6-37.4,39-43.4,66.8c-2.6,12.2-4.1,24.6-5.3,37.1c-0.5,5.4,0.1,10.9-1.5,16.2
		c-0.7,2.5,0.9,5.1,0.8,7.8c-0.1,18.8,0.2,37.7-0.2,56.5c-0.2,9.5-1.2,19.1-3,28.5c-1.6,8.3-7,13.5-15.7,13.9
		c-15.6,0.7-31.2-0.3-45.1-8.4c-15.6-9-28.8-20.2-33.3-39c-2.3-9.6-3.8-19.3-4.6-29.1c-1.1-14.5-1.2-29.1-2.2-43.7
		c-0.9-12.6-1.1-25.2-2.1-37.7c-1.3-14.7-0.3-29.7-5.6-43.9c-7.3-19.4-21.9-30.1-41.4-35.1c-3-0.8-6.2-1.1-9.1-2
		c-8.6-2.8-14,2.6-19.5,7.4c-13.6,12-22.5,27.5-31.3,43c-16.4,29.2-28.8,60.4-44.6,89.9c-8.7,16.3-18,32.1-30.7,45.8
		c-18.3,19.9-40.5,32.5-67,36.6c-17.9,2.8-35.8,1.4-53.8-1.5c-21.5-3.5-41.8-10.2-60.8-20.4c-11.3-6-21.7-13.5-31.5-21.9
		c-15.4-13-28.3-28.1-38.3-45.6c-8.2-14.3-14.9-29.3-21-44.6c-8-20-13.9-40.6-17.8-61.7c-3.7-19.9-5.4-40-4.1-60.2
		c1.4-20.9,6-41.2,13.9-60.6c1.3-3.2,1.2-4.7-2.3-6.5c-8.9-4.6-17.6-9.7-24.9-16.6c-8.5-8.1-13.9-18.4-18.6-28.9
		c-6.9-15.4-11.8-31.5-15.7-48c-3.8-16.2-5.7-32.6-4.4-49.1c1.3-15.4,7.3-29.5,15.7-42.5c3-4.5,5.8-9.1,8.8-13.7
		c0.6-1,1.4-1.8,1.3-3.1c-0.3-8,3.8-13.8,10.3-17.3c16.1-8.8,33.4-12.2,51.5-8c11.2,2.6,18.3,11.3,25,20c7.8,10.2,10.9,22,12.4,34.7
		c1.1,9.5,1.3,19,0.6,28.3c-1.1,14.7-1.6,29.6-4.6,44.1c-0.5,2.6-0.3,5.3-0.5,9c3.7-4,7.1-7.4,10.2-11.1
		c8.8-10.4,18.7-19.7,28.8-28.9c10.4-9.5,21.4-18,33.2-25.6c20.9-13.4,43-24.8,65.8-34.6c18.4-7.9,37.2-14.6,56.8-18.8
		c9.2-2,18.4-2.9,27.8-4c13.9-1.5,27.2,0.6,40.6,3c14.2,2.6,26.9,8.6,39.3,15.3c11.9,6.5,22.7,14.8,32,24.6
		c17.9,19,30,41.3,36.9,66.5c1.5,5.5,2.9,11.1,4.1,16.7c0.8,0.9,0.9,1.9,0.7,3c0.1,1.3,0.2,2.6,0.3,4c0.8,0.9,0.9,1.9,0.7,3
		c0.7,9.7-0.4,19.4-1.7,29c0.3,1.2-0.4,2.1-1,3c-3.3,8.8-6.8,17.6-13.1,24.9c-1.7,2-3.4,4-5.1,6c-13.1,13.5-28.9,22.8-45.9,30.7
		c-21.8,10.1-44.7,17-67.9,22.7c-15.3,3.7-30.8,6.2-46.5,7.8c-15.5,1.6-31.1,1.7-46.6,2c-5.3,1.2-10.6,0.4-15.8,0
		c-24.4-2-48.6-5.8-72.6-10.7c-1.6-0.3-3.3-0.5-4.9-1c-4.3-1.4-6.1,0.5-7.6,4.5c-4.6,11.9-4.6,24.5-6.5,36.7
		c-3.8,24.9-2.9,49.8,2.5,74.4c5.1,23.1,17.8,41.1,38.1,53.3c10.4,6.2,22.3,6,34,4.9c17.7-1.8,32.5-10.5,46.1-21.2
		c21.9-17.1,42.7-35.5,62.4-55.2c1.5-1.5,2.8-3.4,5.2-3.6c11.8-11.6,23.7-23,37.9-31.7c19.3-11.8,39.1-22.4,61.4-26.9
		c11.8-2.4,22.4-8.2,34.3-10c20.6-3.2,40.8-2.2,60.3,5.1c15.4,5.7,29.2,14.3,41,25.9c0.1,0.1,0.2,0.2,0.4,0.4c2.9,2.4,4,7.9,7.8,7.5
		c3.2-0.3,6.1-4.2,9.1-6.4c8.4-6,16.6-12.2,26.2-16.4c8.1-3.5,16.6-5.1,25.3-5.6c8.9-0.5,17.9,0.1,26.8,0.9
		c12.7,1.2,24.8-2.8,37.2-3.7c11.2-0.8,22.3,1.3,32.7,6c6.3,2.8,12.5,6,17.8,10.6c2.4,2.1,2.8,0.2,3.9-1.4
		c5.8-8.7,11.9-17.2,21.2-22.4c10.3-5.7,19.1-14.1,31.1-16.4c7-1.3,14-1.1,20.8-0.4c7.8,0.8,16.1-0.4,23.2,3.7
		c11,6.4,23.3,4.8,34.9,6.9c12.3,2.2,23.2,7.1,32.7,15c22.6,18.8,34,44.1,41.7,71.6c4.6,16.6,7.7,33.5,9.1,50.7
		c0.8,9,1.4,18.1,2,27.1c1.3,21.1,2.6,42.3,12,61.9c1,2.1,2.2,4.1,4.4,5.3c3.8-6.3,10.5-9.4,15.8-14c9.9-8.5,17.5-18.8,24.6-29.4
		c9-13.4,13.3-28.8,18.3-43.9c4.9-15.1,7.8-30.5,7.9-46.4c0-1-0.1-2,0.1-3c2.3-8.9,1.4-10.7-7.9-15c-16.8-7.8-32.6-16.8-46.2-29.9
		c-7.9-7.6-14.9-15.6-20.7-24.9c-10.8-17-6.7-35.9,9.3-45.9c0.6-0.3,1.3-0.5,1.7-1c6.9-10.1,16.6-7.4,26.2-5.9
		c18,2.7,35.7,6.5,53.6,9.8c6,1.1,12,1.5,18,2.7c11.2,2.2,18.8,10.1,25.3,18.6c12.4,16.3,21.5,34.5,27.7,54.1
		c3.9,12.4,7,25,6.9,38.1c0,2.6,1.1,3.8,3.3,4.7c15.5,6.3,31,12.6,46.4,18.9c15,6.1,30.4,11.4,43.3,21.9
		c7.8,6.3,13.9,14.1,19.6,22.2c7.3,10.5,15.9,20.1,21.5,31.8c3.6,7.4,6,14.9,6.1,23.1C1373.9,964.3,1373.9,966.6,1373.4,968.9z"/>
		<path fill="#FEFEFE" d="M986.2,1083.9c-12.5-6-26.3-6.8-39.5-9.9c-6.7-1.6-13.8-3.3-20.4-2.7c-7.1,0.7-13.7-1.2-20.6-1.3
		c-13.6-0.2-27.2-1.6-40.8-1.2c-8.7,0.3-17.5,0-26.2,0.1c-5,0.1-9.9-0.3-14.7-1.7c-1.7-0.5-3.7-0.6-5.4-0.2c-11.6,2.8-23.3,2-35,1
		c-6.4-0.5-12.9-0.9-19.4,0.6c-2.4,0.5-5.2-0.7-7.8-0.7c-13.9-0.1-27.7,1.5-41.5,2.9c-6.8,0.7-13.5-1.3-20.1-2.1
		c-6.3-0.8-12.6-0.8-18.9-0.7c-11.1,0-21.9-2.2-32.9-3.6c-15.5-2.1-31.1-2.2-46.6-0.6c-1,0.1-2,0.1-3,0.1
		c-26.1,0.2-52.2,1.2-78.3,1.2c-16.2,0-32.5-1.1-48.7,0c-13.5,0.8-26.9,2-40.2,4.5c-1.9,0.4-4,0.4-5.9,0.4
		c-13.7,0-27.3,2.1-40.9,3.9c-16.1,2.1-32.3,3.8-48.4,6.3c-18.2,2.8-36.4,4.5-54.8,4c-20.1-0.5-38,8.1-56.3,14.8
		c-10.5,3.9-21.1,7.5-30.3,14.1c-12.3,8.9-19.7,20.6-19.9,36.1c-0.1,9.9,3.6,15.6,12.7,18.6c14.5,4.7,28.9,7.4,44.6,4.7
		c11.7-2,22.3-6.5,33.3-10.4c2.4-0.9,4.8-1.6,6,0.9c1.3,2.6-0.3,4.5-3.1,5.7c-17.9,8.1-36.1,14.4-56.2,13.3
		c-9.1-0.5-17.5-3.2-25.7-6.4c-12.9-5.1-25.4-11.1-38.1-16.4c-6.1-2.6-10.4-7.5-15.6-11.2c-10.9-7.7-22.1-14.9-32.8-22.9
		c-3.8-2.8-5.4-6.9-8.1-10.4c-2.2-3.1-2.6-6.4-1.1-9.9c2.5-13.4,11.8-21.2,25.2-22c6.2-0.4,12.4-1.7,18.4-3.2
		c9.5-2.5,19.2-2.4,28.9-3.4c9.2-1,18.4-1.8,27.4-3.4c7.8-1.4,15.7-1.9,23.5-2.6c18.7-1.8,37.5-1.6,56.2-1
		c16.9,0.5,33.2-2.3,49.6-5.7c3.5-0.7,7.1-1,10.7-1.5c4.6-1.3,9.3-2,14.2-2.2c5.5-0.2,10.9-1.2,15.9-3.6c2.3-0.9,4.8-1.2,7.3-1.2
		c10.3,0.2,20.5-1.7,30.8-1c9.1,0.7,18.1,1.4,27.2,1.9c6.6,0.4,13.1-0.6,19.7-1.9c15.9-3.2,32.1-3.9,48.3-4c6.3,0,12.5,1.6,18.7,1.7
		c7.4,0.1,14.9-0.3,22.3-1c9-0.9,18.1-1.1,27.1-2.7c14.7-2.6,29.5-0.7,44.3-1.1c9.6-0.3,19.1-1.5,28.7-0.2c14.9,2.1,30.1,0.6,45,3.1
		c3.4,0.6,6.2-1.7,9.4-2.3c11.3-1.9,22.5,0.2,33.7,0.8c10,0.6,19.9,2.3,29.9,3.5c6.7,0.9,13.4-0.3,20-0.8c9.1-0.7,18.2,0.5,27.2,1.6
		c3.8,0.4,7.7,0.8,11.5,0.1c15.5-2.6,30.9,0,45.8,2.5c20.8,3.5,41.8,4.8,62.5,8.4c7.1,1.2,14.5,0,21.8,1.2
		c10.4,1.6,20.8,3.9,31.5,3.3c2-0.1,4.5,0.8,6.2,2.6c7.5,4.4,16.2,4.2,24.2,6.6c0.6,0.2,1.3,0.1,1.9,0.5c1.4,1.3,3.3,0.9,5,1.2
		c1.6,0.9,3.5-0.2,5,0.8c1.7,0.4,3.3,0.8,5,1.2c3.5,2,8.1,1.5,11,4.8c-0.2,1.8-1.2,2.1-2.8,1.6c-10.1-3.5-20.7-4.8-31.3-7.1
		c-0.6,1.6,1,4.2-1.8,5.3C988.4,1086.5,987.5,1084.8,986.2,1083.9z"/>
		<path fill="#FCFCFC" d="M1026.3,1085.9c-3.6-1.8-7.8-2.1-11-4.8c5.6,0.6,10.9,2.4,16,4.8C1029.7,1085.9,1028,1085.9,1026.3,1085.9z
		"/>
		<path fill="#FEFEFE" d="M658.3,1076.9c5.4-1.5,10.7-1.6,16.1,0C669.1,1076.9,663.7,1076.9,658.3,1076.9z"/>
		<path fill="#FEFEFE" d="M828.4,1080.1c5,0.2,10.1-1.2,15,0.8c-3.4,0-6.7,0-10.1,0C831.5,1081.6,829.6,1083.2,828.4,1080.1z"/>
		<path fill="#FEFEFE" d="M828.4,1080.1c1.5,1.4,3.3,0.6,5,0.8c-2.8,3.4-5.1,3-7-0.8C827.1,1080.1,827.7,1080.1,828.4,1080.1z"/>
		<path fill="#FEFEFE" d="M1151.3,1093.1c1,0,2,0,3,0c-1.2,1-1.9,4.3-4,0.8C1150.5,1093.5,1150.9,1093.2,1151.3,1093.1z"/>
		<path fill="#FEFEFE" d="M564.3,610c-1.3-0.8-0.8-1.9-0.7-3C565.7,607.6,565.9,608.6,564.3,610z"/>
		<path fill="#FEFEFE" d="M377.4,1090.8c0.8-1.3,1.9-0.8,3-0.7C379.9,1092.3,378.8,1092.5,377.4,1090.8z"/>
		<path fill="#FEFEFE" d="M369.4,1091.8c0.8-1.3,1.9-0.8,3-0.7C371.9,1093.3,370.8,1093.5,369.4,1091.8z"/>
		<path fill="#FEFEFE" d="M354.4,1093.8c0.8-1.3,1.9-0.8,3-0.7C356.9,1095.3,355.9,1095.5,354.4,1093.8z"/>
		<path fill="#FCFCFC" d="M1151.3,1093.1c-0.3,0.3-0.7,0.6-1,0.8c-1.7,0-3.4,0-5.1,0C1147.1,1092.2,1149.2,1093.1,1151.3,1093.1z"/>
		<path fill="#FEFEFE" d="M633.3,1077.8c0.8-1.3,1.9-0.8,3-0.7C635.8,1079.3,634.8,1079.5,633.3,1077.8z"/>
		<path fill="#FEFEFE" d="M563.3,603c-1.3-0.8-0.8-1.9-0.7-3C564.7,600.6,564.9,601.6,563.3,603z"/>
		<path fill="#FEFEFE" d="M481.4,1082.8c0.8-1.3,1.9-0.8,3-0.7C483.9,1084.3,482.8,1084.5,481.4,1082.8z"/>
		<path fill="#FEFEFE" d="M435.4,1085.8c0.8-1.3,1.9-0.8,3-0.7C437.9,1087.3,436.8,1087.5,435.4,1085.8z"/>
		<path fill="#FEFEFE" d="M876.4,1082.1c1.3-0.5,2,0.5,3,1C877.8,1084.4,876.8,1084.1,876.4,1082.1z"/>
		<path fill="#FEFEFE" d="M1109.3,1093.1c0.7,0,1.3,0,2,0c0.4,0.2,0.8,0.4,1,0.8C1110.8,1095.5,1109.8,1095.2,1109.3,1093.1z"/>
		<path fill="#FEFEFE" d="M1031.4,1085.9c1.2-0.1,2,0.6,2.9,1.2C1032.6,1088.5,1031.6,1088,1031.4,1085.9z"/>
		<path fill="#FEFEFE" d="M890.4,1083.1c1.3-0.5,2,0.5,3,1C891.8,1085.4,890.8,1085.1,890.4,1083.1z"/>
		<path fill="#FEFEFE" d="M907.4,1084.1c1.3-0.5,2,0.5,3,1C908.8,1086.4,907.8,1086.1,907.4,1084.1z"/>
		<path fill="#FEFEFE" d="M561.6,642c-0.5-1.3,0.5-2,1-3C563.9,640.6,563.6,641.6,561.6,642z"/>
		<path fill="#FEFEFE" d="M863.4,1081.1c1.3-0.5,2,0.5,3,1C864.8,1083.4,863.8,1083.1,863.4,1081.1z"/>
		<path fill="#FEFEFE" d="M1060.3,1089.1c1.3-0.5,2,0.5,3,1C1061.7,1091.4,1060.7,1091.1,1060.3,1089.1z"/>
		<path fill="#FCFCFC" d="M1112.3,1093.9c-0.3-0.3-0.6-0.6-1-0.8c1.7,0,3.6-0.8,5,0.8C1115,1093.9,1113.7,1093.9,1112.3,1093.9z"/>
		<path fill="#FCFCFC" d="M417.5,818.1c-10,10.9-21,20.7-32,30.6c-11.3,10.2-22.8,20.1-34.7,29.4c-18,14-37.6,23.4-61.3,21.9
		c-17.1-1-30.1-9.5-40.3-22.2c-7.9-9.8-15.1-20.3-17.9-33.1c-2.3-10.3-4.4-20.6-4.7-31.1c-0.2-6.3-1.4-12.5-1.2-18.8
		c0.6-15.7,2.9-31.1,4.6-46.7c0.9-8,3.3-15.4,5.5-22.9c0.7-2.6,1.8-3.5,5-2.9c16.2,3.5,32.5,6.5,48.9,8.7c13.7,1.8,27.4,3.9,41.3,4
		c1.9,0,3.9,0.7,5.8,1.1c5.9,6.1,11.8,12.2,17.8,18.2c19.9,19.9,39.8,39.8,59.6,59.7C415.2,815.2,416.3,816.7,417.5,818.1z"/>
		<path fill="#CE0D49" d="M1407.2,659.8c8.6,2,12,9.8,16.7,15.8c3.1,4,5.8,8.5,7.4,13.5c2.4,7.5-0.6,14.4-7.9,17.8
		c-5.2,2.4-12.8,2.1-17.2-5.5c-4-6.9-9.1-13.1-13.5-19.6c-5.7-8.6-1.9-20.3,9.5-21.9C1404,659.3,1405.6,659.3,1407.2,659.8z"/>
		<path fill="#FCFCFC" d="M1373.4,968.9c0-2.3,0-4.6,0-6.9C1374.7,964.3,1374.7,966.6,1373.4,968.9z"/>
		<path fill="#FCFCFC" d="M1407.2,659.8c-1.6,0-3.3,0-4.9,0C1404,658.6,1405.6,658.6,1407.2,659.8z"/>
		<path fill="#FEFEFE" d="M181.6,646c3.5,3.6,5.7,2,7.9-1.7c8.7-14.8,19-28.4,30.4-41.3c17-19.4,36.3-36,58.1-49.8
		c19.3-12.2,39.8-22.3,60.8-31.4c19.4-8.4,39.3-14.8,60.1-18.3c27-4.5,52.9-0.8,76.8,13.3c8.9,5.2,17,11.4,24.3,18.5
		c11.2,11.1,19.3,24.5,25.5,39.1c5.7,13.5,9.8,27.6,10.8,42.2c0.9,12.8-2.6,24.8-11.5,34.7c-13.8,15.6-32.1,23.9-50.7,31.7
		c-22.3,9.3-45.7,15.4-69.4,19.8c-13.4,2.5-27,4.3-40.8,4.3c-9.2,0.1-18.4,0.4-27.7,0.1c-18.3-0.8-36.4-3.1-54.5-5.9
		c-20.1-3.1-39.9-7.5-59.7-12.2c-2.3-0.5-3.5-0.2-4.8,2.3c-6.4,11.8-8.7,24.8-11.6,37.6c-3.3,14.4-6.1,28.9-9.1,43.3
		c-0.7,3.2,1.1,6.1,1,9.3c-0.2,7.8-0.4,15.7,0,23.5c0.9,19.1,2.3,38.2,9.2,56.2c8,20.8,20.9,38.4,38.9,51.9
		c13.6,10.2,28.8,14.2,45.5,15c28,1.3,51.9-8.9,73.7-25.2c17.2-12.9,33.1-27.3,49-41.7c9.1-8.3,17.8-17,26.4-25.8
		c9.3-9.5,19.1-18.2,31.6-25.6c-2.8,5-5.2,9.1-7.6,13.3c-10.2,18.1-19.1,36.9-27.9,55.7c-9.5,20.1-18.9,40.2-31,58.9
		c-9.5,14.6-21,27.4-36.4,35.7c-17.3,9.3-35.9,11.7-55.5,9.8c-15.5-1.5-30.5-4.1-45.2-9.2c-18.9-6.5-35.5-16.7-50.9-29.5
		c-21.3-17.8-34.2-41-45.1-65.8c-7.6-17.3-13.9-35.1-18.1-53.5c-3.5-15.4-5.9-30.9-6.9-46.8c-1.6-25.1,1.8-49.4,11.5-72.3
		c3.6-8.5,6.9-17,9.8-25.7c0.8-2.4,1-3.6-2-4.7c-4.9-1.8-9.7-4.2-13.7-7.9c-4.4-4.1-10.1-5.6-15.2-8.3c-12.5-6.6-20-17.3-25.3-30
		c-7.1-16.8-12.1-34.2-15.9-52.1c-5.3-25.3,0.4-47.8,15.4-68.5c4.8-6.6,10.8-12,15.4-18.7c2.3-3.3,7.5-2.6,11.5-3.2
		c10.9-1.9,14.7,6.9,19.9,13.5c3.4,4.3,4,9.8,4.7,14.9c1.7,13.1,1.3,26.3-0.5,39.5c-1.1,8-1.2,16.1-2.3,24.1
		c-0.9,6.2-1.9,12.3-2.1,18.6c-0.4,11.6,3.8,21.9,8.1,32.2c2.6,4,5.8,7.7,7,12.5c0.2,1,0.7,2.3,1.9,1.6
		C178.3,642.4,179.6,645.1,181.6,646z"/>
		<path fill="#FEFEFE" d="M588.9,777.8c9.6,1.5,18.4,5,26.5,9.8c20.1,11.9,32.1,30,40.1,51.4c7.3,19.6,11.6,39.9,14.7,60.5
		c2.3,15,2.2,30.1,0.4,45.3c-0.9,7.3-1.2,14.9-1.1,22.3c0.2,9.3-1.6,18.5-1.1,27.8c0.2,4.5-3.1,2.9-5.2,2.7
		c-8-0.9-14.1-5.5-20.5-9.9c-9.7-6.6-11.7-16.5-13.2-26.9c-2.2-14.6-2.4-29.3-3.2-43.9c-0.9-18.5-1.9-37-3.1-55.4
		c-0.8-13.2-0.9-26.7-4.8-39.6c-5.2-16.9-13.4-31.8-28.3-42.2c-0.4-0.3-0.7-0.7-1-1C589,778.7,589,778.5,588.9,777.8z"/>
		<path fill="#FEFEFE" d="M1044.6,985.8c-10.9-3.5-19.1-9.6-26-17.5c-15.6-17.6-22.3-39.5-30.1-61c-6.6-18.2-10-37-12.1-56.1
		c-2.1-19-4.8-37.9-5.1-57.1c-0.1-6-1.6-12.1-3.3-17.8c-1.4-4.6,0.5-4.3,3.5-3.3c9.1,2.9,16.7,8.2,22.6,15.4
		c16,19.8,23.9,43.1,28.5,67.8c2.5,13.8,4,27.6,5.1,41.6c1.3,17.2,1.1,34.6,4.9,51.6c2.4,10.7,4.9,21.4,9.9,31.3
		C1043,982.2,1043.6,983.6,1044.6,985.8z"/>
		<path fill="#FEFEFE" d="M1098.2,743.8c14,2.9,28.3,2.7,42.2,5.6c5.8,1.2,11.9,0.4,17.7,2c11.6,3,18.2,12.2,24.1,21.5
		c9.4,14.9,16.3,31.1,20.8,48.2c0.6,2.3,0.6,4.5-0.9,6.1c-1.6,1.6-3.6,0.5-5.5-0.1c-6.6-2-11.1-7.5-17.7-9.5
		c-4.7-1.4-8.9-4.3-13.7-5.5c-16.7-4.3-30.3-14.4-43.7-24.2c-11.1-8.1-21.3-17.9-29.8-29.1c-0.4-0.5-1-1-1.2-1.6
		c-0.9-2.9-4.7-5.7-2.6-8.5C1090.1,745.6,1094.4,744.7,1098.2,743.8z"/>
		<path fill="#FEFEFE" d="M818.2,796.3c19.2,15.6,34.1,34.3,42.3,57.8c1.9,5.4,1.2,11.1,1.6,16.7c1.2,14.5,3.1,28.8,4.4,43.3
		c1.7,19,4.1,37.9,6.4,56.9c0.1,1.2,0.3,1.7-1,2c-6.7,2-21.2-3.6-24.3-9.7c-2.2-4.4-3.1-9.5-3-14.3c0.3-14.6-0.5-29.3-1.3-43.8
		c-1.5-28.6-3.9-57.1-13.8-84.3C826.3,812.2,822.4,804.2,818.2,796.3z"/>
		<path fill="#FEFEFE" d="M1120.8,969.6c30.2-35,42.4-76.9,47.4-121.7c9.1,5.6,18.5,11.5,27.9,17.4c7,4.4,7,4.5,5.2,12.5
		c-4.3,19.2-13.5,35.8-26.1,50.8c-13.9,16.7-30.3,30.3-49.9,39.8C1124,969,1122.7,970.4,1120.8,969.6z"/>
		<path fill="#FEFEFE" d="M719.7,789.1c-15.4,14.9-26.3,31.4-33.9,50.4c-2.6-7.5-5.3-14.7-8.4-21.7c-2-4.5,2.2-7.2,4.3-8.8
		c10.3-8,20.3-16.8,33.6-19.9C716.4,788.9,717.6,789.1,719.7,789.1z"/>
		<path fill="#FEFEFE" d="M865.2,803.6c-1.2-1.3-1.9-2.2-2.7-3c-3.3-3-3.4-5.8-0.8-9.8c5.2-7.7,10.1-15.5,20.2-19.9
		C874.4,781.5,869.3,792.1,865.2,803.6z"/>
		<path fill="#F6F6F6" d="M355.4,1056.1c-4.6,4-10.1,5.1-15.9,4.8c-4.8-0.3-9.4,1.1-14.2,1c4.6-3,10-3,15-3.6
		C345.4,1057.7,350.3,1056.4,355.4,1056.1z"/>
		<path fill="#F8F8F8" d="M181.6,646c-2.2,0-4.5-3.5-6.7,0.3c-0.6,1-2-0.2-2.1-1.1c-0.3-5.9-4.6-10-6.3-15.3
		C171.5,635.3,176.5,640.6,181.6,646z"/>
		<path fill="#FCFCFC" d="M1000.4,1077.9c-7.5-0.2-14.7-2.4-22.1-3.8c-1.9-0.4-3.2-1.5-4-3.2C983,1073.5,992.1,1074.2,1000.4,1077.9z
		"/>
		<path fill="#F3F3F3" d="M85.4,1104.8c-0.3,3.4,0.4,6.6,1.1,9.9C82.5,1111.8,82.5,1108.5,85.4,1104.8z"/>
		<path fill="#FCFCFC" d="M1010.4,1079.9c-1.7-0.2-3.5,0.6-5-0.8C1007.1,1079.1,1009,1078.2,1010.4,1079.9z"/>
		<path fill="#CE0D49" d="M306.9,664.9c-10.6,0.5-22.7,0.2-34.7-1.1c-11.3-1.2-22.5-2.6-33-7.8c-13.9-6.9-16.3-23.4-8.7-34.6
		c5.7-8.4,13.9-14,22-19.4c12.3-8.2,25-15.9,37.7-23.4c15-8.9,30.7-16.4,47-22.6c10.9-4.1,22.5-6.3,33.6-9.7
		c9.7-3,19.5-5.5,29.4-7.8c12.2-2.8,24.5-4.7,37-4.6c17.9,0.2,34.2,5.8,47.1,18.4c12.2,12,14.3,26.8,8.1,42.4
		c-4.6,11.5-10.8,22.4-19.7,31.3c-13,13-29.4,20.3-46.6,25.7c-14,4.4-28.4,7.1-42.9,8.8c-9.6,1.2-19.3,1.8-29,2.5
		C338.8,664.2,323.7,665.2,306.9,664.9z"/>
		<path fill="#FEFEFE" d="M258.6,632.6c30.8-21.5,62.3-41.2,97.8-53.4c8-2.7,16.3-4.6,24.8-5.2c1.6-0.1,3.4-0.4,4.7-1.2
		c10.4-6.8,22.6-6.5,34.1-8.7c9.6-1.8,19.4-2.1,29,0.1c7,1.6,13.2,5.2,17.4,11.5c1.2,1.8,1.1,3.6,0.4,6
		c-6.6,21.8-22.1,34.2-42.8,41.2c-13.7,4.6-27.8,7.6-42.3,9.3c-11.6,1.4-23.2,2.2-34.8,3.1c-16.5,1.3-33,2.3-49.6,1.7
		c-11.8-0.4-23.7-0.8-35.3-2.9C260.8,633.8,259.9,633.1,258.6,632.6z"/>
	</g>
</svg>
